<svg xmlns="http://www.w3.org/2000/svg" viewBox="0 0 197.56 197.56"><defs><style>.cls-1{fill:#4197d2;}.cls-2{fill:#fff;}</style></defs><g id="Calque_2" data-name="Calque 2"><g id="Layer_1" data-name="Layer 1"><path class="cls-1" d="M197.56,98.78A98.78,98.78,0,1,1,98.78,0a98.77,98.77,0,0,1,98.78,98.78"/><path class="cls-2" d="M29,48.88H73.42L70.56,62H65.87c-2.23,0-3.66.2-4.29.61a3.62,3.62,0,0,0-1.71,3.14,10.88,10.88,0,0,0,.82,3.54l8.09,22.4L84,70.87A32,32,0,0,0,86.46,67,4.62,4.62,0,0,0,87,65.08a2.56,2.56,0,0,0-1.2-2.24C85,62.29,83.37,62,80.92,62H77.85l3.07-13.14h39.49L117.55,62a18.53,18.53,0,0,0-5.31.55,11.39,11.39,0,0,0-3.41,1.83,26.18,26.18,0,0,0-4.08,4.29l-29.5,36.84-4,17.77a24,24,0,0,0-.69,3.61,3.41,3.41,0,0,0,1.71,3.14c.77.45,2.4.68,4.9.68h3.75l-3.07,13.14H32l3-13.14h2.73a20.26,20.26,0,0,0,6.06-.62,5.71,5.71,0,0,0,2.69-1.9,13.32,13.32,0,0,0,1.73-4.91L52,106.08l-15.12-36A25.08,25.08,0,0,0,34,64.68a6.9,6.9,0,0,0-2.86-2A15.25,15.25,0,0,0,26,62Z"/><path class="cls-2" d="M144.25,74.28q14.1,0,23.56,7.86t9.47,21.21A43.16,43.16,0,0,1,156.13,140a42.4,42.4,0,0,1-21.55,5.51q-15.32,0-24.31-8.34t-9-21.69a39.92,39.92,0,0,1,5.66-20.66,40.61,40.61,0,0,1,15.45-15,44.1,44.1,0,0,1,21.86-5.48m-.64,13.89A13.72,13.72,0,0,0,135,91.44q-4.12,3.27-7.27,11a41.81,41.81,0,0,0-3.14,15.84q0,6.53,2.83,9.83a9.21,9.21,0,0,0,7.34,3.31,14.27,14.27,0,0,0,8.84-3.17q4.13-3.17,7.27-10.79A41.84,41.84,0,0,0,154,101.38q0-6.6-2.83-9.91a9.46,9.46,0,0,0-7.55-3.3"/></g></g></svg>